<?xml version="1.0" standalone="no"?>
<!DOCTYPE svg PUBLIC "-//W3C//DTD SVG 20010904//EN"
 "http://www.w3.org/TR/2001/REC-SVG-20010904/DTD/svg10.dtd">
<svg version="1.0" xmlns="http://www.w3.org/2000/svg"
 width="725.000000pt" height="725.000000pt" viewBox="0 0 725.000000 725.000000"
 preserveAspectRatio="xMidYMid meet">
<metadata>
Created by potrace 1.14, written by Peter Selinger 2001-2017
</metadata>
<g transform="translate(0.000000,725.000000) scale(0.100000,-0.100000)"
fill="#000000" stroke="none">
<path d="M3180 7247 c-3 -3 -25 -8 -50 -11 -69 -9 -137 -36 -225 -88 -108 -64
-136 -91 -259 -253 -58 -77 -112 -147 -119 -155 -6 -8 -32 -42 -57 -75 -55
-75 -249 -332 -272 -360 -20 -25 -200 -262 -276 -365 -31 -41 -58 -77 -62 -80
-3 -3 -23 -30 -45 -60 -22 -30 -42 -57 -45 -60 -4 -3 -26 -32 -51 -65 -24 -33
-47 -61 -51 -63 -5 -2 -8 -8 -8 -13 0 -5 -7 -17 -16 -26 -8 -10 -51 -65 -95
-123 -44 -58 -87 -113 -95 -123 -7 -9 -14 -21 -14 -27 0 -5 -6 -13 -13 -17 -7
-4 -33 -36 -58 -69 -49 -68 -251 -336 -259 -344 -4 -4 -158 -208 -284 -375
-20 -27 -43 -57 -49 -65 -135 -171 -170 -222 -190 -285 -15 -46 -17 -221 -19
-1965 l-2 -1915 22 -48 c28 -58 78 -110 135 -138 51 -26 150 -32 222 -12 28 7
61 15 75 18 53 10 66 13 105 23 22 6 51 13 65 15 14 3 45 10 70 17 25 7 56 14
70 17 14 2 52 11 85 20 33 8 71 17 85 19 14 3 43 10 65 16 22 6 49 12 60 13
11 2 49 11 85 20 36 9 74 19 84 21 41 8 163 37 211 49 28 8 66 17 85 20 19 3
57 12 84 20 27 8 52 13 54 10 3 -3 11 0 19 6 7 6 13 9 13 6 0 -3 21 0 48 8 26
8 61 16 77 19 17 3 57 12 90 20 33 8 101 24 150 36 50 11 117 28 150 36 32 9
68 18 80 19 11 2 77 17 147 34 69 16 137 32 150 35 13 2 41 9 63 15 22 6 51
12 65 15 14 2 25 5 25 6 0 1 9 3 20 4 11 2 38 8 60 14 22 6 51 13 65 15 14 3
45 10 70 17 25 7 54 14 65 16 39 8 62 13 185 42 327 79 437 105 460 109 14 2
43 9 65 15 22 5 51 12 64 15 43 7 108 42 144 75 30 29 135 157 375 458 42 52
79 97 82 100 3 3 72 87 153 188 81 100 175 217 209 260 35 42 67 83 73 90 5 7
17 21 26 30 8 9 51 62 95 116 43 55 105 131 136 170 32 39 88 109 125 156 37
47 73 89 80 93 7 4 13 15 13 22 0 8 4 15 8 15 4 0 33 33 63 73 31 39 70 88 87
107 34 40 268 329 357 440 32 41 62 77 65 80 4 3 35 41 70 85 34 44 66 82 71
83 5 2 9 8 9 13 0 6 10 20 23 33 12 13 50 59 84 103 35 44 72 91 84 104 12 13
42 51 67 84 26 33 58 73 72 88 24 28 56 100 65 147 20 112 24 176 15 247 -25
188 -108 338 -253 456 -161 131 -362 179 -577 136 -47 -9 -105 -19 -130 -22
-25 -3 -65 -10 -90 -16 -25 -5 -67 -13 -95 -16 -27 -4 -77 -13 -110 -20 -33
-8 -78 -16 -100 -19 -22 -2 -61 -9 -87 -15 -26 -6 -68 -13 -94 -16 -27 -4 -75
-12 -109 -20 -33 -7 -82 -16 -110 -20 -27 -3 -67 -10 -87 -16 -21 -5 -57 -12
-81 -14 -23 -2 -72 -11 -107 -19 -36 -8 -87 -17 -114 -21 -27 -3 -76 -12 -109
-20 -33 -8 -64 -12 -68 -9 -4 2 -10 0 -14 -6 -4 -6 -10 -8 -15 -5 -5 3 -40 -1
-77 -10 -37 -8 -84 -17 -103 -19 -39 -5 -169 -28 -302 -55 -48 -10 -92 -14
-98 -11 -7 4 -13 53 -15 116 -8 200 -15 328 -25 479 -5 83 -12 215 -15 295 -3
80 -10 218 -15 307 -6 90 -13 213 -15 275 -4 116 -10 217 -24 468 -5 80 -9
161 -9 180 -1 49 -9 87 -34 145 -22 53 -82 153 -102 170 -6 6 -21 23 -34 39
-51 66 -240 184 -322 200 -14 3 -36 8 -50 11 -34 8 -234 19 -240 12z"/>
</g>
</svg>
